<svg width="29" height="33" viewBox="0 0 29 33" fill="none" xmlns="http://www.w3.org/2000/svg">
<path d="M14.5104 0C13.2903 0 12.3206 0.682568 12.3206 1.51352L13.0616 9.91884C13.1434 10.4252 13.7625 10.8159 14.5111 10.8159C15.2611 10.8149 15.8781 10.4246 15.9616 9.91884L16.706 1.51352C16.706 0.682639 15.7336 7.13722e-05 14.5119 7.13722e-05L14.5104 0ZM2.43619 6.74235C1.80281 6.75741 1.08331 7.23784 0.625635 8.03283C0.0135462 9.09144 0.122012 10.2745 0.838181 10.6895L8.47343 14.2518C8.95041 14.4296 9.59822 14.0902 9.97335 13.4423C9.9734 13.4422 9.9733 13.442 9.97335 13.4419C10.3502 12.7908 10.3211 12.0587 9.9243 11.7339L3.02834 6.88813C2.84925 6.78421 2.64778 6.73744 2.43664 6.74246L2.43619 6.74235ZM26.5845 6.74235C26.3735 6.73733 26.1723 6.7841 25.9935 6.88802L19.0967 11.7338C18.7023 12.0586 18.673 12.7907 19.048 13.4418L19.0483 13.4422C19.4249 14.0901 20.0706 14.4295 20.5476 14.2517L28.1862 10.6896C28.9053 10.2745 29.0084 9.09157 28.4005 8.03291C27.9407 7.23789 27.22 6.75749 26.5867 6.74243L26.5845 6.74235ZM8.75868 17.832C8.6599 17.8306 8.56414 17.8459 8.47448 17.8797L0.839224 21.4378C0.123073 21.8547 0.0146184 23.0381 0.626689 24.0979C1.23693 25.1544 2.31255 25.6567 3.02888 25.2423L9.92538 20.4003C10.3222 20.0716 10.3515 19.3396 9.97443 18.6891L9.97756 18.6906C9.67273 18.1607 9.18673 17.8377 8.75869 17.8319L8.75868 17.832ZM20.2654 17.832C19.8379 17.8378 19.3528 18.1608 19.0473 18.6907L19.0501 18.6893C18.6749 19.3397 18.7039 20.0717 19.0984 20.4004L25.9953 25.2424C26.7103 25.6568 27.7869 25.1545 28.3999 24.098C29.0079 23.0382 28.9048 21.8547 28.1857 21.4379L20.5494 17.8798C20.4597 17.846 20.3642 17.8307 20.2655 17.8321L20.2654 17.832ZM14.5093 21.3155C13.762 21.3164 13.1443 21.7053 13.0626 22.2104L12.3217 30.6154C12.3217 31.4477 13.2914 32.1289 14.5114 32.1289C15.7337 32.1289 16.7052 31.4477 16.7052 30.6154L15.9626 22.2104C15.879 21.7053 15.262 21.3164 14.512 21.3155H14.5093H14.5093Z" fill="#B3B7BC"/>
</svg>
